{"asset":{"version":"2.0","generator":"babylon.js glTF exporter for 3ds max 2018 v1.4.0"},"scene":0,"scenes":[{"nodes":[0,1,2,3,4,5],"extensions":{}}],"nodes":[{"mesh":0,"translation":[0.0,0.0,0.0],"rotation":[0.7071068,0.0,0.0,0.7071067],"scale":[1.0,0.99999994,0.99999994],"name":"Fur object"},{"mesh":1,"translation":[0.0,0.0,0.0],"rotation":[0.7071068,0.0,0.0,0.7071067],"scale":[1.0,0.99999994,0.99999994],"name":"Label"},{"mesh":2,"translation":[0.0,0.0,0.0],"rotation":[0.7071068,0.0,0.0,0.7071067],"scale":[1.0,0.99999994,0.99999994],"name":"Bottom"},{"mesh":3,"translation":[0.0,0.0,0.0],"rotation":[0.7071068,0.0,0.0,0.7071067],"scale":[1.0,0.99999994,0.99999994],"name":"Wood"},{"mesh":4,"translation":[0.0,0.0,0.0],"rotation":[0.7071068,0.0,0.0,0.7071067],"scale":[1.0,0.99999994,0.99999994],"name":"Fabric"},{"translation":[0.0,0.0,0.0],"rotation":[0.0,0.0,0.0,1.0],"scale":[1.0,1.0,1.0],"name":"Default light"}],"meshes":[{"primitives":[{"attributes":{"POSITION":1,"NORMAL":2,"TEXCOORD_0":3},"indices":0,"mode":4,"material":0}],"name":"Fur object"},{"primitives":[{"attributes":{"POSITION":5,"NORMAL":6,"TEXCOORD_0":7},"indices":4,"mode":4,"material":1}],"name":"Label"},{"primitives":[{"attributes":{"POSITION":9,"NORMAL":10,"TEXCOORD_0":11},"indices":8,"mode":4,"material":2}],"name":"Bottom"},{"primitives":[{"attributes":{"POSITION":13,"NORMAL":14,"TEXCOORD_0":15},"indices":12,"mode":4,"material":3}],"name":"Wood"},{"primitives":[{"attributes":{"POSITION":17,"NORMAL":18,"COLOR_0":19,"TEXCOORD_0":20,"TEXCOORD_1":21},"indices":16,"mode":4,"material":4}],"name":"Fabric"}],"accessors":[{"bufferView":0,"componentType":5123,"count":6480,"type":"SCALAR","name":"accessorIndices"},{"bufferView":1,"componentType":5126,"count":6480,"max":[0.32648176,-0.1266947,-0.458741218],"min":[-0.3279644,-0.256730765,-0.8677907],"type":"VEC3","name":"accessorPositions"},{"bufferView":1,"byteOffset":77760,"componentType":5126,"count":6480,"type":"VEC3","name":"accessorNormals"},{"bufferView":2,"componentType":5126,"count":6480,"type":"VEC2","name":"accessorUVs"},{"bufferView":0,"byteOffset":12960,"componentType":5123,"count":7200,"type":"SCALAR","name":"accessorIndices"},{"bufferView":1,"byteOffset":155520,"componentType":5126,"count":7200,"max":[0.486145616,-0.111494929,-0.154477566],"min":[0.471018881,-0.170606673,-0.180969626],"type":"VEC3","name":"accessorPositions"},{"bufferView":1,"byteOffset":241920,"componentType":5126,"count":7200,"type":"VEC3","name":"accessorNormals"},{"bufferView":2,"byteOffset":51840,"componentType":5126,"count":7200,"type":"VEC2","name":"accessorUVs"},{"bufferView":0,"byteOffset":27360,"componentType":5123,"count":2358,"type":"SCALAR","name":"accessorIndices"},{"bufferView":1,"byteOffset":328320,"componentType":5126,"count":2358,"max":[0.452797055,0.403259754,-0.107051566],"min":[-0.454095632,-0.3094607,-0.164512873],"type":"VEC3","name":"accessorPositions"},{"bufferView":1,"byteOffset":356616,"componentType":5126,"count":2358,"type":"VEC3","name":"accessorNormals"},{"bufferView":2,"byteOffset":109440,"componentType":5126,"count":2358,"type":"VEC2","name":"accessorUVs"},{"bufferView":0,"byteOffset":32076,"componentType":5125,"count":527664,"type":"SCALAR","name":"accessorIndices"},{"bufferView":1,"byteOffset":384912,"componentType":5126,"count":527664,"max":[0.5354728,0.43217206,1.60109952E-08],"min":[-0.5354728,-0.424033552,-1.0474745],"type":"VEC3","name":"accessorPositions"},{"bufferView":1,"byteOffset":6716880,"componentType":5126,"count":527664,"type":"VEC3","name":"accessorNormals"},{"bufferView":2,"byteOffset":128304,"componentType":5126,"count":527664,"type":"VEC2","name":"accessorUVs"},{"bufferView":0,"byteOffset":2142732,"componentType":5125,"count":337224,"type":"SCALAR","name":"accessorIndices"},{"bufferView":1,"byteOffset":13048848,"componentType":5126,"count":337224,"max":[0.550024152,0.4501231,-0.126319379],"min":[-0.550024152,-0.4233018,-0.953413],"type":"VEC3","name":"accessorPositions"},{"bufferView":1,"byteOffset":17095536,"componentType":5126,"count":337224,"type":"VEC3","name":"accessorNormals"},{"bufferView":3,"componentType":5126,"count":337224,"type":"VEC4","name":"accessorColors"},{"bufferView":2,"byteOffset":4349616,"componentType":5126,"count":337224,"type":"VEC2","name":"accessorUVs"},{"bufferView":2,"byteOffset":7047408,"componentType":5126,"count":337224,"type":"VEC2","name":"accessorUV2s"}],"bufferViews":[{"buffer":0,"byteLength":3491628,"name":"bufferViewScalar"},{"buffer":0,"byteOffset":3491628,"byteLength":21142224,"byteStride":12,"name":"bufferViewFloatVec3"},{"buffer":0,"byteOffset":24633852,"byteLength":9745200,"byteStride":8,"name":"bufferViewFloatVec2"},{"buffer":0,"byteOffset":34379052,"byteLength":5395584,"byteStride":16,"name":"bufferViewFloatVec4"}],"buffers":[{"uri":"AICO_GLTF_TEST.bin","byteLength":39774636}],"materials":[{"pbrMetallicRoughness":{"baseColorFactor":[0.135294124,0.103921577,0.05686275,1.0],"metallicFactor":0.0,"roughnessFactor":0.2581639},"emissiveFactor":[0.0,0.0,0.0],"alphaMode":"OPAQUE","name":"Fur_MAT"},{"pbrMetallicRoughness":{"baseColorFactor":[0.5,0.5,0.5,1.0],"baseColorTexture":{"index":0,"texCoord":0},"metallicFactor":0.0,"roughnessFactor":0.450053632},"emissiveFactor":[0.0,0.0,0.0],"alphaMode":"OPAQUE","name":"Material #0"},{"pbrMetallicRoughness":{"baseColorFactor":[0.158302411,0.129539266,0.0975515544,1.0],"metallicFactor":0.0,"roughnessFactor":0.2581639},"emissiveFactor":[0.0,0.0,0.0],"alphaMode":"OPAQUE","name":"Bottom"},{"pbrMetallicRoughness":{"baseColorFactor":[0.5,0.5,0.5,1.0],"baseColorTexture":{"index":1,"texCoord":0},"metallicFactor":0.0,"roughnessFactor":0.450053632},"emissiveFactor":[0.0,0.0,0.0],"alphaMode":"OPAQUE","name":"Wood_MAT"},{"pbrMetallicRoughness":{"baseColorFactor":[0.5,0.5,0.5,1.0],"baseColorTexture":{"index":2,"texCoord":0},"metallicFactor":0.0,"roughnessFactor":0.450053632},"emissiveFactor":[0.0,0.0,0.0],"alphaMode":"OPAQUE","name":"Fabric_MAT"}],"textures":[{"sampler":0,"source":0,"name":"Label.png"},{"sampler":0,"source":1,"name":"Wood.png"},{"sampler":0,"source":2,"name":"TEXTURE_SOFA.png"}],"images":[{"uri":"Label.png"},{"uri":"Wood.png"},{"uri":"TEXTURE_SOFA.png"}],"samplers":[{"magFilter":9729,"minFilter":9987,"wrapS":10497,"wrapT":10497}]}